<svg id="visual" viewBox="0 0 900 900" width="900" height="900" xmlns="http://www.w3.org/2000/svg" xmlns:xlink="http://www.w3.org/1999/xlink" version="1.1"><rect x="0" y="0" width="900" height="900" fill="#CCCCCC"></rect><defs><linearGradient id="grad1_0" x1="0%" y1="0%" x2="100%" y2="100%"><stop offset="30%" stop-color="#cccccc" stop-opacity="1"></stop><stop offset="70%" stop-color="#cccccc" stop-opacity="1"></stop></linearGradient></defs><defs><linearGradient id="grad2_0" x1="0%" y1="0%" x2="100%" y2="100%"><stop offset="30%" stop-color="#cccccc" stop-opacity="1"></stop><stop offset="70%" stop-color="#cccccc" stop-opacity="1"></stop></linearGradient></defs><g transform="translate(900, 0)"><path d="M0 413.7C-54.4 408.3 -108.8 402.9 -158.3 382.2C-207.8 361.5 -252.4 325.4 -283.5 283.5C-314.7 241.7 -332.5 194 -352 145.8C-371.5 97.6 -392.6 48.8 -413.7 0L0 0Z" fill="#009473"></path></g><g transform="translate(0, 900)"><path d="M0 -413.7C41.4 -377.7 82.7 -341.7 135.5 -327.1C188.2 -312.4 252.4 -319.2 292.5 -292.5C332.6 -265.8 348.7 -205.5 364.9 -151.2C381.1 -96.8 397.4 -48.4 413.7 0L0 0Z" fill="#009473"></path></g></svg>